<svg id="Layer_1" enable-background="new 0 0 496 496" height="512" viewBox="0 0 496 496" width="512" xmlns="http://www.w3.org/2000/svg"><path d="m361.147 319.34c57.884-215.994 54.21-200.418 54.21-206.6 0-9.336-4.035-18.072-10.27-23.93-15.703-14.964-41.257-10.927-51.69 7.85v-59.46c0-20.528-16.619-37.2-37.2-37.2-20.54 0-37.2 16.66-37.2 37.2v110.87l-62.04-102.6c-6.89-11.94-19.4-18.61-32.25-18.61-28.367 0-46.555 30.895-32.18 55.81l54.53 90.93h-72.73c-20.538 0-37.2 16.661-37.2 37.2 0 4.542.561 4.13 0 4.13-9.09 0-16.53 7.44-16.53 16.54v148.8c0 63.91 51.82 115.73 115.73 115.73h41.34c0-.866 36.269 2.457 67.99-29.23 65.839-65.866 55.088-146.093 55.49-147.43zm-114.51 26.51c-7.096 23.805-36.429 32.191-55.02 15.92-23.27-20.37-36.62-49.78-36.62-80.7 0-10.64.591-20.093-5.57-33.07h71.39l9.15 8.34c11.085 10.102 18.039 24.746 18.06 40.89.011 42.233.474 42.344-1.39 48.62z" fill="#f9cfac"/><g fill="#ffe4cc"><path d="m353.397 37.2v212.98c-15.165-29.768-23.935-49.578-74.4-133.04v-79.94c0-20.54 16.66-37.2 37.2-37.2 20.527 0 37.2 16.618 37.2 37.2z"/><path d="m316.837 213.62-22.27-22.27c-21.76-21.77-50.69-33.75-81.46-33.75h-15.65l-44.93-74.93c-14.368-24.903 3.801-55.81 32.18-55.81 12.85 0 25.36 6.67 32.25 18.61 74.511 123.224 52.252 85.644 99.88 168.15z"/><path d="m361.267 322.1c-1.138-22.266-5.462-36.732-9.29-50.72l-68.72-68.72c-18.61-18.61-43.84-29.06-70.15-29.06-85.859 0-85.039-1.323-95.5 3.97-8.423 4.182-15.355 11.857-18.56 21.42 34.051 1.621 58.195 22.59 67.68 49.01h54.09c9.798 8.931 16.953 14.35 22.49 26.88 6.138 13.891 4.72 21.71 4.73 61.28 0 29.143-34.456 44.833-56.42 25.61-17.866-15.637-29.627-36.926-33.69-55.82-6.708-28.113 2.418-40.232-11.27-63.09-9.38-15.465-25.663-26.059-44.41-27.7-.4 0 1.407.067-4.88-.23-.42 0-.27-11.39-.27 148.84 0 63.91 51.82 115.73 115.73 115.73h41.34c0-.655 30.867 1.864 60.67-22.6.01-.01.02-.01.03-.03 33.106-38.15 49.011-87.31 46.4-134.77z"/><path d="m415.357 112.74c0 6.165 3.015-6.933-45.96 175.81v-206.25c21.595-9.133 45.96 6.623 45.96 30.44z"/></g></svg>